<svg xmlns="http://www.w3.org/2000/svg" width="24" height="24" viewBox="0 0 24 24" fill="none">
  <path d="M16 19H8C6.346 19 5 17.654 5 16V8C5 6.346 6.346 5 8 5H13C13.2652 5 13.5196 5.10536 13.7071 5.29289C13.8946 5.48043 14 5.73478 14 6C14 6.26522 13.8946 6.51957 13.7071 6.70711C13.5196 6.89464 13.2652 7 13 7H8C7.448 7 7 7.449 7 8V16C7 16.551 7.448 17 8 17H16C16.552 17 17 16.551 17 16V13C17 12.7348 17.1054 12.4804 17.2929 12.2929C17.4804 12.1054 17.7348 12 18 12C18.2652 12 18.5196 12.1054 18.7071 12.2929C18.8946 12.4804 19 12.7348 19 13V16C19 17.654 17.654 19 16 19ZM13.166 14.833C12.816 14.833 12.477 14.694 12.225 14.442L9.557 11.775C9.31702 11.5228 9.18516 11.1867 9.18959 10.8385C9.19402 10.4904 9.33438 10.1578 9.5807 9.91173C9.82702 9.66567 10.1598 9.52566 10.5079 9.5216C10.8561 9.51754 11.192 9.64975 11.444 9.89L12.86 11.307L16.335 5.852C16.4171 5.69372 16.5302 5.5535 16.6674 5.43965C16.8047 5.32581 16.9633 5.24063 17.1341 5.18916C17.3048 5.13769 17.4841 5.12098 17.6614 5.14C17.8387 5.15903 18.0104 5.21341 18.1663 5.29993C18.3223 5.38645 18.4593 5.50336 18.5692 5.64374C18.6792 5.78412 18.7599 5.94512 18.8066 6.11722C18.8533 6.28933 18.865 6.46904 18.841 6.64575C18.817 6.82245 18.7578 6.99255 18.667 7.146L14.333 14.146C14.2329 14.3264 14.0923 14.4811 13.9222 14.5979C13.7522 14.7147 13.5573 14.7904 13.353 14.819L13.166 14.833Z" fill="#10C13F"/>
</svg>