<svg xmlns="http://www.w3.org/2000/svg" width="24" height="24" viewBox="0 0 24 24" fill="none">
<path d="M9.125 4.73762C9.125 4.40938 9.25539 4.09459 9.48749 3.86249C9.71959 3.63039 10.0344 3.5 10.3626 3.5H14.488C14.8162 3.5 15.131 3.63039 15.3631 3.86249C15.5952 4.09459 15.7256 4.40938 15.7256 4.73762V5.5627C15.7256 5.89093 15.5952 6.20572 15.3631 6.43782C15.131 6.66992 14.8162 6.80031 14.488 6.80031H10.3626C10.0344 6.80031 9.71959 6.66992 9.48749 6.43782C9.25539 6.20572 9.125 5.89093 9.125 5.5627V4.73762Z" fill="#633CFF"/>
<path fill-rule="evenodd" clip-rule="evenodd" d="M7.88777 5.18066C6.84983 5.23842 6.19471 5.40343 5.72524 5.87373C5 6.59897 5 7.76563 5 10.099V15.0494C5 17.3836 5 18.5502 5.72524 19.2755C6.44966 19.9999 7.61715 19.9999 9.95047 19.9999H14.9009C17.2343 19.9999 18.4017 19.9999 19.1262 19.2755C19.8514 18.5494 19.8514 17.3836 19.8514 15.0494V10.099C19.8514 7.76563 19.8514 6.59897 19.1262 5.87373C18.6567 5.40343 18.0016 5.23842 16.9636 5.18066V5.56268C16.9636 6.21915 16.7028 6.84873 16.2387 7.31293C15.7745 7.77713 15.1449 8.03791 14.4884 8.03791H10.363C9.70653 8.03791 9.07695 7.77713 8.61275 7.31293C8.14856 6.84873 7.88777 6.21915 7.88777 5.56268V5.18066ZM7.6815 10.5131C7.6815 10.349 7.7467 10.1916 7.86275 10.0756C7.9788 9.95953 8.13619 9.89433 8.30031 9.89433H16.5511C16.7152 9.89433 16.8726 9.95953 16.9887 10.0756C17.1047 10.1916 17.1699 10.349 17.1699 10.5131C17.1699 10.6773 17.1047 10.8347 16.9887 10.9507C16.8726 11.0668 16.7152 11.132 16.5511 11.132H8.30031C8.13619 11.132 7.9788 11.0668 7.86275 10.9507C7.7467 10.8347 7.6815 10.6773 7.6815 10.5131ZM8.50658 13.4009C8.50658 13.2368 8.57178 13.0794 8.68783 12.9634C8.80388 12.8473 8.96127 12.7821 9.12539 12.7821H15.726C15.8901 12.7821 16.0475 12.8473 16.1636 12.9634C16.2796 13.0794 16.3448 13.2368 16.3448 13.4009C16.3448 13.565 16.2796 13.7224 16.1636 13.8385C16.0475 13.9545 15.8901 14.0197 15.726 14.0197H9.12539C8.96127 14.0197 8.80388 13.9545 8.68783 13.8385C8.57178 13.7224 8.50658 13.565 8.50658 13.4009ZM9.33166 16.2887C9.33166 16.1246 9.39686 15.9672 9.51291 15.8511C9.62895 15.7351 9.78635 15.6699 9.95047 15.6699H14.9009C15.0651 15.6699 15.2225 15.7351 15.3385 15.8511C15.4545 15.9672 15.5197 16.1246 15.5197 16.2887C15.5197 16.4528 15.4545 16.6102 15.3385 16.7263C15.2225 16.8423 15.0651 16.9075 14.9009 16.9075H9.95047C9.78635 16.9075 9.62895 16.8423 9.51291 16.7263C9.39686 16.6102 9.33166 16.4528 9.33166 16.2887Z" fill="#633CFF"/>
</svg>