<svg
                width="22"
                height="17"
                viewBox="0 0 22 17"
                fill="none"
                xmlns="http://www.w3.org/2000/svg"
              >
                <path
                  d="M21.5 4.16667C21.5 3.54783 21.2419 2.95434 20.7824 2.51675C20.3229 2.07917 19.6998 1.83334 19.05 1.83334H9.42981C9.22265 1.83397 9.01997 1.77596 8.8475 1.66667L7.63125 0.892088C7.2285 0.635594 6.75469 0.499101 6.27019 0.500004H2.95C2.30022 0.500004 1.67705 0.745837 1.21759 1.18342C0.758124 1.62101 0.5 2.2145 0.5 2.83334V4.83334C0.5 4.92174 0.536875 5.00653 0.602513 5.06904C0.66815 5.13155 0.757174 5.16667 0.85 5.16667H21.15C21.2428 5.16667 21.3319 5.13155 21.3975 5.06904C21.4631 5.00653 21.5 4.92174 21.5 4.83334V4.16667ZM0.5 14.1667C0.5 14.7855 0.758124 15.379 1.21759 15.8166C1.67705 16.2542 2.30022 16.5 2.95 16.5H19.05C19.6998 16.5 20.3229 16.2542 20.7824 15.8166C21.2419 15.379 21.5 14.7855 21.5 14.1667V6.83334C21.5 6.74493 21.4631 6.66015 21.3975 6.59763C21.3319 6.53512 21.2428 6.5 21.15 6.5H0.85C0.757174 6.5 0.66815 6.53512 0.602513 6.59763C0.536875 6.66015 0.5 6.74493 0.5 6.83334V14.1667Z"
                  fill="white"
                />
              </svg>
