<svg width="18" height="15" viewBox="0 0 18 15" fill="none" xmlns="http://www.w3.org/2000/svg">
<path d="M17.4706 3.6521C17.4706 3.12996 17.2558 2.6292 16.8736 2.25999C16.4914 1.89077 15.9729 1.68335 15.4324 1.68335H7.429C7.25666 1.68389 7.08804 1.63494 6.94456 1.54273L5.93272 0.889174C5.59766 0.672757 5.20348 0.557591 4.80041 0.558353H2.03824C1.49766 0.558353 0.979229 0.765775 0.596985 1.13499C0.214742 1.5042 0 2.00496 0 2.5271V4.2146C0 4.28919 0.0306774 4.36073 0.0852836 4.41348C0.13989 4.46622 0.213952 4.49585 0.291176 4.49585H17.1794C17.2566 4.49585 17.3307 4.46622 17.3853 4.41348C17.4399 4.36073 17.4706 4.28919 17.4706 4.2146V3.6521ZM0 12.0896C0 12.6117 0.214742 13.1125 0.596985 13.4817C0.979229 13.8509 1.49766 14.0583 2.03824 14.0583H15.4324C15.9729 14.0583 16.4914 13.8509 16.8736 13.4817C17.2558 13.1125 17.4706 12.6117 17.4706 12.0896V5.9021C17.4706 5.82751 17.4399 5.75597 17.3853 5.70323C17.3307 5.65048 17.2566 5.62085 17.1794 5.62085H0.291176C0.213952 5.62085 0.13989 5.65048 0.0852836 5.70323C0.0306774 5.75597 0 5.82751 0 5.9021V12.0896Z" fill="#717171"/>
</svg>
