<svg width="19" height="20" viewBox="0 0 19 20" fill="none" xmlns="http://www.w3.org/2000/svg">
<path d="M15.0417 15.85H3.95833V7.14164H15.0417M12.6667 1.59998V3.18331H6.33333V1.59998H4.75V3.18331H3.95833C3.07958 3.18331 2.375 3.88789 2.375 4.76664V15.85C2.375 16.2699 2.54181 16.6726 2.83875 16.9696C3.13568 17.2665 3.53841 17.4333 3.95833 17.4333H15.0417C15.4616 17.4333 15.8643 17.2665 16.1613 16.9696C16.4582 16.6726 16.625 16.2699 16.625 15.85V4.76664C16.625 4.34672 16.4582 3.94399 16.1613 3.64706C15.8643 3.35012 15.4616 3.18331 15.0417 3.18331H14.25V1.59998M13.4583 10.3083H9.5V14.2666H13.4583V10.3083Z" fill="#717171"/>
</svg>
