<svg width="14" height="15" viewBox="0 0 14 15" fill="none" xmlns="http://www.w3.org/2000/svg">
<path d="M13.7103 7.69365L7.3493 0.96167C7.3035 0.913068 7.2491 0.874509 7.18921 0.8482C7.12932 0.821892 7.06512 0.80835 7.00029 0.80835C6.93545 0.80835 6.87126 0.821892 6.81137 0.8482C6.75148 0.874509 6.69708 0.913068 6.65128 0.96167L0.290327 7.69365C0.105012 7.88992 0 8.15651 0 8.43456C0 9.01191 0.443213 9.48132 0.988349 9.48132H1.65857V14.285C1.65857 14.5745 1.87941 14.8083 2.15275 14.8083H6.01194V11.1447H7.74155V14.8083H11.8478C12.1212 14.8083 12.342 14.5745 12.342 14.285V9.48132H13.0122C13.2748 9.48132 13.5265 9.37174 13.7118 9.17383C14.0963 8.76494 14.0963 8.10254 13.7103 7.69365Z" fill="#1873FB"/>
</svg>
