<svg
                width="20"
                height="18"
                viewBox="0 0 20 18"
                fill="none"
                xmlns="http://www.w3.org/2000/svg"
              >
                <path
                  d="M4.825 17.5C6.41282 17.5 7.7 16.2128 7.7 14.625V13.4471C7.7 12.1768 8.72974 11.1471 10 11.1471C11.2703 11.1471 12.3 12.1768 12.3 13.4471V14.625C12.3 16.2128 13.5872 17.5 15.175 17.5C16.7628 17.5 18.05 16.2128 18.05 14.625V9.94355C18.05 9.43868 18.4593 9.02941 18.9641 9.02941C19.8204 9.02941 20.2067 7.95773 19.5474 7.4114L12.0361 1.18721C10.8551 0.208571 9.1449 0.208571 7.96389 1.18721L0.452601 7.4114C-0.206705 7.95773 0.179617 9.02941 1.03587 9.02941C1.54073 9.02941 1.95 9.43868 1.95 9.94355V14.625C1.95 16.2128 3.23718 17.5 4.825 17.5Z"
                  fill="white"
                />
              </svg>
