 <svg
                width="21"
                height="23"
                viewBox="0 0 21 23"
                fill="none"
                xmlns="http://www.w3.org/2000/svg"
              >
                <path
                  d="M17.1668 20.6665H3.8335V18.8332C3.8335 17.6176 4.27248 16.4518 5.05388 15.5923C5.83529 14.7327 6.89509 14.2498 8.00016 14.2498H13.0002C14.1052 14.2498 15.165 14.7327 15.9464 15.5923C16.7278 16.4518 17.1668 17.6176 17.1668 18.8332V20.6665ZM10.5002 12.4165C9.84355 12.4165 9.19337 12.2742 8.58675 11.9978C7.98012 11.7214 7.42892 11.3163 6.96463 10.8056C6.50034 10.2949 6.13204 9.68855 5.88076 9.02126C5.62949 8.35397 5.50016 7.63877 5.50016 6.9165C5.50016 6.19423 5.62949 5.47904 5.88076 4.81175C6.13204 4.14445 6.50034 3.53814 6.96463 3.02742C7.42892 2.51669 7.98012 2.11157 8.58675 1.83517C9.19337 1.55877 9.84355 1.4165 10.5002 1.4165C11.8262 1.4165 13.098 1.99597 14.0357 3.02742C14.9734 4.05887 15.5002 5.45781 15.5002 6.9165C15.5002 8.37519 14.9734 9.77414 14.0357 10.8056C13.098 11.837 11.8262 12.4165 10.5002 12.4165Z"
                  fill="white"
                />
              </svg>
