<svg width="19" height="20" viewBox="0 0 19 20" fill="none" xmlns="http://www.w3.org/2000/svg">
<path d="M7.32311 17.9167L7.00645 15.3833C6.83492 15.3174 6.67342 15.2382 6.52194 15.1458C6.37047 15.0535 6.2219 14.9545 6.07624 14.849L3.72103 15.8385L1.54395 12.0781L3.58249 10.5344C3.56929 10.442 3.5627 10.3531 3.5627 10.2676V9.7332C3.5627 9.64718 3.56929 9.55798 3.58249 9.46562L1.54395 7.92187L3.72103 4.16145L6.07624 5.15104C6.22138 5.04548 6.37311 4.94652 6.53145 4.85416C6.68978 4.7618 6.84811 4.68263 7.00645 4.61666L7.32311 2.08333H11.6773L11.9939 4.61666C12.1655 4.68263 12.3272 4.7618 12.4792 4.85416C12.6312 4.94652 12.7795 5.04548 12.9242 5.15104L15.2794 4.16145L17.4564 7.92187L15.4179 9.46562C15.4311 9.55798 15.4377 9.64718 15.4377 9.7332V10.2668C15.4377 10.3528 15.4245 10.442 15.3981 10.5344L17.4367 12.0781L15.2596 15.8385L12.9242 14.849C12.779 14.9545 12.6273 15.0535 12.4689 15.1458C12.3106 15.2382 12.1523 15.3174 11.9939 15.3833L11.6773 17.9167H7.32311ZM9.53978 12.7708C10.3051 12.7708 10.9582 12.5003 11.4992 11.9594C12.0401 11.4184 12.3106 10.7653 12.3106 9.99999C12.3106 9.23472 12.0401 8.58159 11.4992 8.04062C10.9582 7.49965 10.3051 7.22916 9.53978 7.22916C8.76131 7.22916 8.10475 7.49965 7.57011 8.04062C7.03547 8.58159 6.76842 9.23472 6.76895 9.99999C6.76895 10.7653 7.03626 11.4184 7.5709 11.9594C8.10554 12.5003 8.76183 12.7708 9.53978 12.7708Z" fill="#717171"/>
</svg>
