<svg width="20" height="20" viewBox="0 0 20 20" fill="none" xmlns="http://www.w3.org/2000/svg">
<path d="M15.4375 1.875H4.0625C3.63152 1.875 3.2182 2.0462 2.91345 2.35095C2.6087 2.6557 2.4375 3.06902 2.4375 3.5V14.875C2.4375 15.7688 3.16875 16.5 4.0625 16.5H7.3125L9.17312 18.3606C9.49 18.6775 10.0019 18.6775 10.3187 18.3606L12.1875 16.5H15.4375C16.3313 16.5 17.0625 15.7688 17.0625 14.875V3.5C17.0625 2.60625 16.3313 1.875 15.4375 1.875ZM10.5625 14.875H8.9375V13.25H10.5625V14.875ZM12.2444 8.57812L11.5131 9.32562C11.0419 9.805 10.7087 10.2194 10.6031 10.9994C10.5544 11.3487 10.27 11.6169 9.9125 11.6169H9.66063C9.56073 11.6167 9.46204 11.5951 9.37121 11.5535C9.28037 11.512 9.1995 11.4514 9.13405 11.376C9.0686 11.3005 9.02009 11.2119 8.99179 11.1161C8.96349 11.0203 8.95606 10.9195 8.97 10.8206C9.05937 10.0813 9.40063 9.42313 9.89625 8.91937L10.9038 7.89563C11.1962 7.60313 11.375 7.19688 11.375 6.75C11.375 5.85625 10.6438 5.125 9.75 5.125C9.04313 5.125 8.43375 5.58812 8.21437 6.22187C8.10875 6.5225 7.85687 6.74187 7.54 6.74187H7.29625C6.825 6.74187 6.5 6.28687 6.63 5.83187C6.85142 5.08243 7.33534 4.43779 7.99318 4.01596C8.65102 3.59413 9.43877 3.42332 10.2122 3.53481C10.9857 3.64629 11.6932 4.03261 12.2051 4.62304C12.7171 5.21347 12.9992 5.96853 13 6.75C13 7.465 12.7075 8.115 12.2444 8.57812Z" fill="#717171"/>
</svg>
