<svg width="18" height="19" viewBox="0 0 18 19" fill="none" xmlns="http://www.w3.org/2000/svg">
<path d="M0.75 15.3083V13.2084C0.75 12.7833 0.8595 12.3928 1.0785 12.0368C1.2975 11.6808 1.588 11.4088 1.95 11.2208C2.725 10.8333 3.5125 10.5428 4.3125 10.3493C5.1125 10.1558 5.925 10.0588 6.75 10.0583C7.575 10.0583 8.3875 10.1553 9.1875 10.3493C9.9875 10.5433 10.775 10.8338 11.55 11.2208C11.9125 11.4083 12.2032 11.6803 12.4222 12.0368C12.6412 12.3933 12.7505 12.7838 12.75 13.2084V15.3083H0.75ZM14.25 15.3083V13.0583C14.25 12.5083 14.097 11.9801 13.791 11.4736C13.485 10.9671 13.0505 10.5328 12.4875 10.1708C13.125 10.2458 13.725 10.3741 14.2875 10.5556C14.85 10.7371 15.375 10.9588 15.8625 11.2208C16.3125 11.4708 16.6562 11.7488 16.8937 12.0548C17.1313 12.3608 17.25 12.6953 17.25 13.0583V15.3083H14.25ZM6.75 9.30835C5.925 9.30835 5.21875 9.0146 4.63125 8.4271C4.04375 7.8396 3.75 7.13335 3.75 6.30835C3.75 5.48335 4.04375 4.7771 4.63125 4.1896C5.21875 3.6021 5.925 3.30835 6.75 3.30835C7.575 3.30835 8.28125 3.6021 8.86875 4.1896C9.45625 4.7771 9.75 5.48335 9.75 6.30835C9.75 7.13335 9.45625 7.8396 8.86875 8.4271C8.28125 9.0146 7.575 9.30835 6.75 9.30835ZM14.25 6.30835C14.25 7.13335 13.9563 7.8396 13.3688 8.4271C12.7813 9.0146 12.075 9.30835 11.25 9.30835C11.1125 9.30835 10.9375 9.29285 10.725 9.26185C10.5125 9.23085 10.3375 9.19635 10.2 9.15835C10.5375 8.75835 10.797 8.3146 10.9785 7.8271C11.16 7.3396 11.2505 6.83335 11.25 6.30835C11.25 5.78335 11.1595 5.2771 10.9785 4.7896C10.7975 4.3021 10.538 3.85835 10.2 3.45835C10.375 3.39585 10.55 3.35535 10.725 3.33685C10.9 3.31835 11.075 3.30885 11.25 3.30835C12.075 3.30835 12.7813 3.6021 13.3688 4.1896C13.9563 4.7771 14.25 5.48335 14.25 6.30835Z" fill="#717171"/>
</svg>
