<svg width="17" height="13" viewBox="0 0 17 13" fill="none" xmlns="http://www.w3.org/2000/svg">
<path d="M0 12.2444L0 10.1016C0 9.66798 0.11173 9.26953 0.335191 8.90628C0.558651 8.54302 0.855068 8.26548 1.22444 8.07366C2.01523 7.67826 2.81876 7.38185 3.63506 7.18441C4.45135 6.98696 5.2804 6.88799 6.1222 6.88748C6.96401 6.88748 7.79305 6.98645 8.60935 7.18441C9.42564 7.38236 10.2292 7.67877 11.02 8.07366C11.3898 8.26497 11.6865 8.54251 11.91 8.90628C12.1334 9.27004 12.2449 9.66849 12.2444 10.1016V12.2444L0 12.2444ZM13.775 12.2444V9.94858C13.775 9.38738 13.6188 8.84837 13.3066 8.33155C12.9944 7.81474 12.551 7.37164 11.9766 7.00227C12.627 7.0788 13.2393 7.20966 13.8132 7.39486C14.3872 7.58005 14.9229 7.80632 15.4203 8.07366C15.8795 8.32875 16.2302 8.61241 16.4726 8.92464C16.7149 9.23687 16.8361 9.57819 16.8361 9.94858V12.2444H13.775ZM6.1222 6.1222C5.2804 6.1222 4.55977 5.82247 3.9603 5.223C3.36083 4.62354 3.0611 3.9029 3.0611 3.0611C3.0611 2.2193 3.36083 1.49866 3.9603 0.899199C4.55977 0.299733 5.2804 0 6.1222 0C6.96401 0 7.68464 0.299733 8.28411 0.899199C8.88357 1.49866 9.18331 2.2193 9.18331 3.0611C9.18331 3.9029 8.88357 4.62354 8.28411 5.223C7.68464 5.82247 6.96401 6.1222 6.1222 6.1222ZM13.775 3.0611C13.775 3.9029 13.4752 4.62354 12.8758 5.223C12.2763 5.82247 11.5557 6.1222 10.7139 6.1222C10.5736 6.1222 10.395 6.10639 10.1782 6.07476C9.96133 6.04312 9.78277 6.00792 9.64247 5.96915C9.98684 5.561 10.2516 5.10821 10.4368 4.61078C10.622 4.11336 10.7144 3.59679 10.7139 3.0611C10.7139 2.52541 10.6215 2.00885 10.4368 1.51142C10.2521 1.01399 9.98735 0.561202 9.64247 0.153055C9.82103 0.089282 9.9996 0.0479573 10.1782 0.0290805C10.3567 0.0102038 10.5353 0.000510184 10.7139 0C11.5557 0 12.2763 0.299733 12.8758 0.899199C13.4752 1.49866 13.775 2.2193 13.775 3.0611Z" fill="#633CFF"/>
</svg>
