<svg width="24" height="19" viewBox="0 0 24 19" fill="none" xmlns="http://www.w3.org/2000/svg">
<path d="M0 18.0595L0 15.0522C0 14.4436 0.156805 13.8844 0.470414 13.3747C0.784024 12.8649 1.20002 12.4754 1.71841 12.2061C2.82821 11.6512 3.95592 11.2352 5.10152 10.9581C6.24713 10.681 7.41064 10.5421 8.59204 10.5414C9.77345 10.5414 10.937 10.6803 12.0826 10.9581C13.2282 11.236 14.3559 11.6519 15.4657 12.2061C15.9848 12.4746 16.4011 12.8641 16.7147 13.3747C17.0284 13.8852 17.1848 14.4444 17.1841 15.0522L17.1841 18.0595L0 18.0595ZM19.3321 18.0595L19.3321 14.8374C19.3321 14.0498 19.113 13.2934 18.6748 12.5681C18.2366 11.8428 17.6144 11.2209 16.8082 10.7025C17.7211 10.8099 18.5803 10.9936 19.3858 11.2535C20.1913 11.5134 20.9431 11.8309 21.6412 12.2061C22.2856 12.5641 22.7779 12.9622 23.118 13.4004C23.4581 13.8386 23.6281 14.3176 23.6281 14.8374L23.6281 18.0595H19.3321ZM8.59204 9.46742C7.41064 9.46742 6.39928 9.04677 5.55798 8.20547C4.71667 7.36416 4.29602 6.35281 4.29602 5.1714C4.29602 3.99 4.71667 2.97864 5.55798 2.13734C6.39928 1.29603 7.41064 0.875381 8.59204 0.875381C9.77345 0.875381 10.7848 1.29603 11.6261 2.13734C12.4674 2.97864 12.8881 3.99 12.8881 5.1714C12.8881 6.35281 12.4674 7.36416 11.6261 8.20547C10.7848 9.04677 9.77345 9.46742 8.59204 9.46742ZM19.3321 5.1714C19.3321 6.35281 18.9114 7.36416 18.0701 8.20547C17.2288 9.04677 16.2175 9.46742 15.0361 9.46742C14.8392 9.46742 14.5886 9.44523 14.2843 9.40083C13.98 9.35644 13.7294 9.30704 13.5325 9.25262C14.0158 8.67982 14.3874 8.04436 14.6473 7.34626C14.9072 6.64816 15.0368 5.92321 15.0361 5.1714C15.0361 4.4196 14.9065 3.69464 14.6473 2.99654C14.3881 2.29844 14.0165 1.66299 13.5325 1.09018C13.7831 1.00068 14.0337 0.942686 14.2843 0.916194C14.5349 0.889702 14.7855 0.876097 15.0361 0.875381C16.2175 0.875381 17.2288 1.29603 18.0701 2.13734C18.9114 2.97864 19.3321 3.99 19.3321 5.1714Z" fill="#717171"/>
</svg>
