<svg width="13" height="14" viewBox="0 0 13 14" fill="none" xmlns="http://www.w3.org/2000/svg">
<path d="M6.54528 7.12243C5.67028 7.12243 4.92122 6.81087 4.29812 6.18777C3.67501 5.56466 3.36346 4.81561 3.36346 3.94061C3.36346 3.06561 3.67501 2.31655 4.29812 1.69345C4.92122 1.07034 5.67028 0.758789 6.54528 0.758789C7.42028 0.758789 8.16933 1.07034 8.79244 1.69345C9.41554 2.31655 9.72709 3.06561 9.72709 3.94061C9.72709 4.81561 9.41554 5.56466 8.79244 6.18777C8.16933 6.81087 7.42028 7.12243 6.54528 7.12243ZM0.181641 13.4861V11.2588C0.181641 10.808 0.297777 10.3939 0.53005 10.0163C0.762323 9.63871 1.07043 9.35023 1.45437 9.15083C2.27634 8.73985 3.11156 8.43174 3.96005 8.22652C4.80853 8.02129 5.67028 7.91841 6.54528 7.91788C7.42028 7.91788 8.28202 8.02076 9.1305 8.22652C9.97899 8.43227 10.8142 8.74038 11.6362 9.15083C12.0207 9.3497 12.329 9.63818 12.5613 10.0163C12.7936 10.3944 12.9094 10.8086 12.9089 11.2588V13.4861H0.181641Z" fill="#49B165"/>
</svg>
