<svg width="44" height="44" viewBox="0 0 44 44" fill="none" xmlns="http://www.w3.org/2000/svg">
<rect width="44" height="44" rx="8" fill="#0075FF"/>
<path d="M22 32C21.45 32 20.9793 31.8043 20.588 31.413C20.1967 31.0217 20.0007 30.5507 20 30H24C24 30.55 23.8043 31.021 23.413 31.413C23.0217 31.805 22.5507 32.0007 22 32ZM18 29V27H26V29H18ZM18.25 26C17.1 25.3167 16.1873 24.4 15.512 23.25C14.8367 22.1 14.4993 20.85 14.5 19.5C14.5 17.4167 15.2293 15.646 16.688 14.188C18.1467 12.73 19.9173 12.0007 22 12C24.0833 12 25.8543 12.7293 27.313 14.188C28.7717 15.6467 29.5007 17.4173 29.5 19.5C29.5 20.85 29.1627 22.1 28.488 23.25C27.8133 24.4 26.9007 25.3167 25.75 26H18.25Z" fill="white"/>
</svg>
