<svg width="19" height="20" viewBox="0 0 19 20" fill="none" xmlns="http://www.w3.org/2000/svg">
<g id="logos:google-calendar" clip-path="url(#clip0_3343_13010)">
<path id="Vector" d="M13.8781 5.21484H4.30762V14.7854H13.8781V5.21484Z" fill="white"/>
<path id="Vector_2" d="M13.8774 19.0921L18.1842 14.7853L16.0308 14.418L13.8774 14.7853L13.4844 16.7551L13.8774 19.0921Z" fill="#EA4335"/>
<path id="Vector_3" d="M0 14.7853V17.6565C0 18.4497 0.64241 19.0921 1.43555 19.0921H4.30679L4.74896 16.9387L4.30679 14.7853L1.9604 14.418L0 14.7853Z" fill="#188038"/>
<path id="Vector_4" d="M18.1842 5.21499V2.34375C18.1842 1.55061 17.5418 0.908203 16.7486 0.908203H13.8774C13.6154 1.97623 13.4844 2.7622 13.4844 3.26617C13.4844 3.77007 13.6154 4.41972 13.8774 5.21499C14.8299 5.48775 15.5477 5.62413 16.0308 5.62413C16.5139 5.62413 17.2316 5.48775 18.1842 5.21499Z" fill="#1967D2"/>
<path id="Vector_5" d="M18.1837 5.21484H13.877V14.7854H18.1837V5.21484Z" fill="#FBBC04"/>
<path id="Vector_6" d="M13.8781 14.7852H4.30762V19.0919H13.8781V14.7852Z" fill="#34A853"/>
<path id="Vector_7" d="M13.8773 0.908203H1.43562C0.64241 0.908203 0 1.55061 0 2.34375V14.7855H4.30679V5.21499H13.8773V0.908203Z" fill="#4285F4"/>
<path id="Vector_8" d="M6.26987 12.6392C5.91216 12.3975 5.66447 12.0446 5.5293 11.5779L6.35958 11.2359C6.43488 11.523 6.5665 11.7455 6.75438 11.9034C6.94098 12.0613 7.16828 12.1391 7.43387 12.1391C7.70542 12.1391 7.93869 12.0566 8.13367 11.8914C8.32872 11.7263 8.42682 11.5158 8.42682 11.261C8.42682 11.0002 8.32389 10.7872 8.11819 10.6221C7.91241 10.4571 7.65399 10.3745 7.34536 10.3745H6.86561V9.55269H7.29628C7.56187 9.55269 7.78554 9.48088 7.96739 9.33726C8.14923 9.19377 8.24015 8.99751 8.24015 8.74748C8.24015 8.52501 8.15882 8.34793 7.99615 8.21517C7.83349 8.08234 7.62764 8.01536 7.37761 8.01536C7.13355 8.01536 6.93977 8.08 6.79622 8.21034C6.65274 8.34109 6.54487 8.50618 6.48275 8.69009L5.66092 8.34793C5.76974 8.03929 5.96955 7.76653 6.26263 7.53085C6.55577 7.29517 6.93018 7.17676 7.38478 7.17676C7.72098 7.17676 8.02364 7.2414 8.29165 7.37174C8.55958 7.50215 8.77011 7.68279 8.92205 7.9125C9.07406 8.14336 9.14935 8.40177 9.14935 8.68888C9.14935 8.98196 9.07882 9.22964 8.93768 9.43301C8.79647 9.63637 8.62301 9.79186 8.41723 9.90075V9.94976C8.68293 10.0593 8.91373 10.2393 9.08478 10.4702C9.25824 10.7035 9.34561 10.9822 9.34561 11.3077C9.34561 11.633 9.263 11.9237 9.09792 12.1785C8.93285 12.4334 8.70441 12.6343 8.41481 12.7803C8.12415 12.9263 7.79755 13.0005 7.43507 13.0005C7.01514 13.0016 6.62759 12.8808 6.26987 12.6392ZM11.3697 8.51897L10.4581 9.17814L10.0023 8.48672L11.6377 7.3071H12.2645V12.8712H11.3697V8.51897Z" fill="#4285F4"/>
</g>
<defs>
<clipPath id="clip0_3343_13010">
<rect width="18.1841" height="18.1841" fill="white" transform="translate(0 0.908203)"/>
</clipPath>
</defs>
</svg>
