<svg width="12" height="15" viewBox="0 0 12 15" fill="none" xmlns="http://www.w3.org/2000/svg">
<path d="M11.3332 14.667H0.666504V13.3337C0.666504 12.4496 1.01769 11.6018 1.64281 10.9766C2.26794 10.3515 3.11578 10.0003 3.99984 10.0003H7.99984C8.88389 10.0003 9.73174 10.3515 10.3569 10.9766C10.982 11.6018 11.3332 12.4496 11.3332 13.3337V14.667ZM5.99984 8.66699C5.47455 8.66699 4.95441 8.56353 4.4691 8.36251C3.9838 8.16149 3.54284 7.86685 3.17141 7.49542C2.79998 7.12398 2.50534 6.68303 2.30432 6.19773C2.1033 5.71242 1.99984 5.19228 1.99984 4.66699C1.99984 4.1417 2.1033 3.62156 2.30432 3.13626C2.50534 2.65096 2.79998 2.21 3.17141 1.83857C3.54284 1.46713 3.9838 1.17249 4.4691 0.971474C4.95441 0.770455 5.47455 0.666992 5.99984 0.666992C7.0607 0.666992 8.07812 1.08842 8.82826 1.83857C9.57841 2.58871 9.99984 3.60613 9.99984 4.66699C9.99984 5.72786 9.57841 6.74527 8.82826 7.49542C8.07812 8.24556 7.0607 8.66699 5.99984 8.66699Z" fill="#2D3748"/>
</svg>
